<svg xmlns="http://www.w3.org/2000/svg" viewBox="0 0 1341.83 1080"><defs><style>.cls-1{isolation:isolate;}.cls-2,.cls-8{fill:none;}.cls-10,.cls-2,.cls-8{stroke:#000;}.cls-10,.cls-2,.cls-4,.cls-5,.cls-6,.cls-8,.cls-9{stroke-miterlimit:10;}.cls-10,.cls-2,.cls-4,.cls-5,.cls-8,.cls-9{stroke-width:0.5px;}.cls-3{fill:#ef4b4c;}.cls-4,.cls-9{fill:#fff;}.cls-4,.cls-5,.cls-6,.cls-9{stroke:#3e619b;}.cls-5{fill:#e6e6e6;}.cls-6{fill:#bfbfbf;}.cls-7{mix-blend-mode:soft-light;opacity:0.25;}.cls-8,.cls-9{stroke-linecap:round;}.cls-11{fill:#42506b;}</style></defs><g class="cls-1"><g id="OBJECTS"><line class="cls-2" x1="1264.58" y1="438.93" x2="1061.98" y2="544.96"/><line class="cls-2" x1="1264.58" y1="454.41" x2="1061.98" y2="560.44"/><line class="cls-2" x1="1264.58" y1="469.89" x2="1061.98" y2="575.92"/><line class="cls-2" x1="1264.58" y1="485.37" x2="1061.98" y2="591.4"/><line class="cls-2" x1="1264.58" y1="500.85" x2="1061.98" y2="606.88"/><line class="cls-2" x1="1264.58" y1="516.33" x2="1061.98" y2="622.36"/><line class="cls-2" x1="1264.58" y1="531.81" x2="1061.98" y2="637.84"/><line class="cls-2" x1="860.73" y1="637.22" x2="658.12" y2="743.25"/><line class="cls-2" x1="860.73" y1="652.7" x2="658.12" y2="758.72"/><line class="cls-2" x1="860.73" y1="668.18" x2="658.12" y2="774.2"/><line class="cls-2" x1="860.73" y1="683.66" x2="658.12" y2="789.68"/><line class="cls-2" x1="860.73" y1="699.14" x2="658.12" y2="805.16"/><line class="cls-2" x1="860.73" y1="714.62" x2="658.12" y2="820.64"/><line class="cls-2" x1="860.73" y1="730.1" x2="658.12" y2="836.12"/><rect class="cls-2" x="535.28" y="292.81" width="89.23" height="49.74" rx="2.11"/><rect class="cls-3" x="716.78" y="342.55" width="89.23" height="49.74" rx="2.11"/><rect class="cls-3" x="716.78" y="447.57" width="89.23" height="49.74" rx="2.11"/><rect class="cls-3" x="598.85" y="552.6" width="89.23" height="49.74" rx="2.11"/><line class="cls-4" x1="752.98" y1="487.83" x2="752.98" y2="543.1"/><line class="cls-4" x1="752.98" y1="382.8" x2="752.98" y2="438.08"/><rect class="cls-4" x="707.28" y="333.06" width="89.23" height="49.74" rx="2.11"/><rect class="cls-4" x="707.28" y="438.08" width="89.23" height="49.74" rx="2.11"/><path class="cls-4" d="M758.51,382.8a5.53,5.53,0,1,1-5.53-5.53A5.53,5.53,0,0,1,758.51,382.8Z"/><rect class="cls-3" x="941.33" y="313.44" width="89.23" height="49.74" rx="2.11"/><rect class="cls-4" x="931.84" y="303.94" width="89.23" height="49.74" rx="2.11"/><path class="cls-4" d="M983.07,353.69a5.53,5.53,0,1,1-5.53-5.53A5.54,5.54,0,0,1,983.07,353.69Z"/><rect class="cls-3" x="1050.79" y="655.26" width="89.23" height="49.74" rx="2.11"/><rect class="cls-4" x="1041.3" y="645.77" width="89.23" height="49.74" rx="2.11"/><circle class="cls-4" cx="1087" cy="695.51" r="5.53"/><path class="cls-4" d="M758.51,438.08a5.53,5.53,0,1,1-5.53-5.53A5.54,5.54,0,0,1,758.51,438.08Z"/><path class="cls-4" d="M758.51,487.83A5.53,5.53,0,1,1,753,482.3,5.53,5.53,0,0,1,758.51,487.83Z"/><path class="cls-2" d="M634.38,549.33V520.71a5.25,5.25,0,0,1,5.25-5.25H864.57a5.25,5.25,0,0,1,5.25,5.25v28.62"/><rect class="cls-5" x="702.97" y="538.79" width="89.23" height="49.74" rx="2.11"/><rect class="cls-4" x="825.21" y="543.1" width="89.23" height="49.74" rx="2.11"/><rect class="cls-5" x="241.08" y="299.6" width="89.23" height="49.74" rx="2.11"/><rect class="cls-4" x="250.91" y="286.01" width="89.23" height="49.74" rx="2.11"/><rect class="cls-6" x="415.95" y="714.63" width="89.23" height="49.74" rx="2.11"/><rect class="cls-4" x="425.79" y="701.04" width="89.23" height="49.74" rx="2.11"/><rect class="cls-2" x="381.18" y="729.52" width="89.23" height="49.74" rx="2.11"/><rect class="cls-3" x="515.02" y="279.07" width="89.23" height="49.74" rx="2.11"/><rect class="cls-3" x="1168.14" y="213.95" width="89.23" height="49.74" rx="2.11"/><rect class="cls-2" x="493.66" y="263.69" width="89.23" height="49.74" rx="2.11"/><rect class="cls-2" x="1160.54" y="574.25" width="89.23" height="49.74" rx="2.11"/><rect class="cls-2" x="1185.15" y="605.52" width="89.23" height="49.74" rx="2.11"/><rect class="cls-5" x="1038.56" y="558.4" width="89.23" height="49.74" rx="2.11"/><rect class="cls-5" x="889.24" y="482.45" width="89.23" height="49.74" rx="2.11"/><rect class="cls-4" x="846.79" y="417.52" width="89.23" height="49.74" rx="2.11"/><rect class="cls-4" x="589.36" y="543.1" width="89.23" height="49.74" rx="2.11"/><circle class="cls-4" cx="869.82" cy="543.1" r="5.53"/><path class="cls-4" d="M639.5,543.1a5.53,5.53,0,1,1-5.53-5.53A5.52,5.52,0,0,1,639.5,543.1Z"/><path class="cls-4" d="M758.51,543.1a5.53,5.53,0,1,1-5.53-5.53A5.53,5.53,0,0,1,758.51,543.1Z"/><line class="cls-2" x1="599.43" y1="861.62" x2="1190.38" y2="861.62"/><path class="cls-4" d="M1091,805.24H782.11c-6.59,0-11.94-5.07-12-11.32l-.44-188.32a11.66,11.66,0,0,1,11.94-11.39H1091.5c6.6,0,12,5.1,11.93,11.39L1103,793.92C1103,800.17,1097.63,805.24,1091,805.24Z"/><path class="cls-3" d="M1019.08,859.7H872.46a140.56,140.56,0,0,0,28.27-42.08,103.55,103.55,0,0,0,5.13-15.2c3.46-13.85,76.27-13.85,79.76,0a109.64,109.64,0,0,0,5,15.2A127,127,0,0,0,1019.08,859.7Z"/><path class="cls-3" d="M1026.58,866.05H865c-3.82,0-7-2.84-7.09-6.34h0c-.1-3.51,2.93-6.37,6.77-6.37H1026.9c3.84,0,6.87,2.86,6.77,6.37h0C1033.57,863.21,1030.4,866.05,1026.58,866.05Z"/><path class="cls-3" d="M1101.43,810H790.11c-6.64,0-12-5.11-12-11.41l-.45-189.77c0-6.33,5.37-11.47,12-11.47h312.24c6.66,0,12,5.14,12,11.47l-.45,189.77C1113.46,804.88,1108.06,810,1101.43,810Z"/><path class="cls-2" d="M1009.33,854.57H863.82a139.61,139.61,0,0,0,28.06-41.76A102.06,102.06,0,0,0,897,797.72c3.44-13.74,75.69-13.74,79.14,0a109.39,109.39,0,0,0,5,15.09A126.09,126.09,0,0,0,1009.33,854.57Z"/><path class="cls-7" d="M981.19,812.81H892A102.06,102.06,0,0,0,897,797.72c3.44-13.74,75.69-13.74,79.15,0A109.38,109.38,0,0,0,981.19,812.81Z"/><path class="cls-2" d="M1016.76,860.87H856.38a6.83,6.83,0,0,1-7-6.3h0c-.09-3.48,2.91-6.31,6.72-6.31h161c3.8,0,6.81,2.83,6.71,6.31h0C1023.71,858.05,1020.55,860.87,1016.76,860.87Z"/><path class="cls-2" d="M1091,805.24H782.11c-6.59,0-11.94-5.07-12-11.32l-.44-188.32a11.66,11.66,0,0,1,11.94-11.39H1091.5c6.6,0,12,5.1,11.93,11.39L1103,793.92C1103,800.17,1097.63,805.24,1091,805.24Z"/><path class="cls-4" d="M1092.52,764.25a2.61,2.61,0,0,1-2.56,2.63H783.18a2.63,2.63,0,0,1-2.56-2.63l-1.84-158.73a2.61,2.61,0,0,1,2.53-2.7h310.52a3.11,3.11,0,0,1,.33,0,2.62,2.62,0,0,1,2.21,2.67v.75l-.31,26.49-.48,41Z"/><ellipse class="cls-3" cx="946.69" cy="742.03" rx="10.63" ry="5.36"/><polygon class="cls-3" points="1066.13 760.85 946.73 745.2 946.73 642.4 1066.13 653.63 1066.13 760.85"/><polygon class="cls-3" points="827.33 760.85 946.73 745.2 946.73 642.4 827.33 653.63 827.33 760.85"/><path class="cls-2" d="M1056,646.77v106.4L947.76,739c-1,2.38-5.25,4.14-10.27,4.14s-9.22-1.76-10.27-4.14L819,753.17V646.77l118.5-11.16Z"/><path class="cls-4" d="M1049.36,739.24c-37.27,19.71-74.55-23.32-111.83-3.61V631c37.28-19.72,74.56,23.32,111.83,3.6Z"/><path class="cls-5" d="M1046.18,734.42c-36.22,20.84-72.44-21.07-108.66-.23V629.6c36.22-20.85,72.44,21.06,108.66.22Z"/><path class="cls-4" d="M1041.4,728.35c-34.63,22.27-69.27-18.22-103.9,4V627.81c34.63-22.27,69.27,18.21,103.9-4.06Z"/><path class="cls-4" d="M825.69,739.24C863,759,900.25,715.92,937.52,735.63V631c-37.27-19.72-74.55,23.32-111.83,3.6Z"/><path class="cls-5" d="M828.87,734.42c36.23,20.84,72.45-21.07,108.67-.23V629.6c-36.22-20.85-72.44,21.06-108.67.22Z"/><path class="cls-4" d="M833.65,728.35c34.64,22.27,69.27-18.22,103.91,4V627.81c-34.64-22.27-69.27,18.21-103.91-4.06Z"/><path class="cls-4" d="M806.11,543.33v140.6a1.72,1.72,0,0,1-2.94,1.22L774,656a4,4,0,0,0-2.81-1.17h-120a7.56,7.56,0,0,1-7.56-7.56V543.31a7.57,7.57,0,0,1,7.56-7.57H798.53A7.58,7.58,0,0,1,806.11,543.33Z"/><path class="cls-4" d="M772.53,497.83c0,11.36-4.43,23.15-11.76,32.61A89.64,89.64,0,0,0,742.31,574l-.18,1.5a4,4,0,0,1-4,3.51H711.63a4,4,0,0,1-4-3.51l-.2-1.53A89.44,89.44,0,0,0,689,530.46c-7.33-9.47-11.77-21.26-11.77-32.63,0-24.9,21.33-47.08,47.65-47.08S772.53,472.93,772.53,497.83Z"/><path class="cls-3" d="M781.74,503c0,11.36-4.44,23.15-11.77,32.61a89.62,89.62,0,0,0-18.45,43.56l-.19,1.5a4,4,0,0,1-4,3.51H720.83a4,4,0,0,1-4-3.51l-.19-1.53a89.53,89.53,0,0,0-18.44-43.51c-7.33-9.47-11.78-21.27-11.78-32.63,0-24.9,21.33-47.09,47.65-47.09S781.74,478.12,781.74,503Z"/><path class="cls-2" d="M772.53,497.83c0,11.36-4.43,23.15-11.76,32.61A89.64,89.64,0,0,0,742.31,574l-.18,1.5a4,4,0,0,1-4,3.51H711.63a4,4,0,0,1-4-3.51l-.2-1.53A89.44,89.44,0,0,0,689,530.46c-7.33-9.47-11.77-21.26-11.77-32.63,0-24.9,21.33-47.08,47.65-47.08S772.53,472.93,772.53,497.83Z"/><path class="cls-8" d="M745.05,536.73a18.16,18.16,0,0,1-7-3.66c-2.92-2.58-4.36-6.05-3.81-9.33.79-5.17,4.6-8,8.67-7.21s6,4.61,3.84,9.53c-1.34,3.13-4.65,5.72-8.7,7a20.65,20.65,0,0,1-3.46.58,16.33,16.33,0,0,1-9.08-1.42l-.69-.37c3.54-2,6-5.1,6.38-8.4.7-5.18-2.22-8.58-6.36-8.58s-7,3.4-6.35,8.58c.41,3.3,2.8,6.42,6.33,8.4a16.29,16.29,0,0,1-3,1.32,15.47,15.47,0,0,1-6.91.64,18.19,18.19,0,0,1-3.33-.74c-4-1.29-7.33-3.89-8.67-7-2.17-4.92-.23-8.77,3.84-9.52s7.89,2,8.68,7.2c.54,3.28-.94,6.76-3.85,9.34a17.92,17.92,0,0,1-6.91,3.65"/><path class="cls-5" d="M710.58,581.56h27.07a2,2,0,0,1,2,2V613.3a8.44,8.44,0,0,1-8.44,8.44H717.07a8.44,8.44,0,0,1-8.44-8.44V583.51a2,2,0,0,1,2-2Z"/><path d="M742.08,589.19H706.9a1.8,1.8,0,1,1,0-3.59h35.18a1.8,1.8,0,0,1,0,3.59Z"/><path d="M742.08,598.1H706.9a1.8,1.8,0,1,1,0-3.59h35.18a1.8,1.8,0,0,1,0,3.59Z"/><path d="M742.08,607H706.9a1.8,1.8,0,1,1,0-3.59h35.18a1.8,1.8,0,0,1,0,3.59Z"/><path d="M738.76,615.92H710.22a1.8,1.8,0,1,1,0-3.59h28.54a1.8,1.8,0,0,1,0,3.59Z"/><path class="cls-3" d="M1061.14,354.2h-52.66a27.67,27.67,0,0,1,8.18-19.72c.3-.31.59-.59.91-.88a25.49,25.49,0,0,1,17.24-7.24C1049.49,326.36,1061.14,339.31,1061.14,354.2Z"/><path class="cls-2" d="M1051.93,349H999.28a27.67,27.67,0,0,1,8.18-19.72c.3-.3.58-.59.91-.87a25.45,25.45,0,0,1,17.24-7.25C1040.29,321.17,1051.93,334.13,1051.93,349Z"/><path class="cls-4" d="M1025.61,321.17A27.9,27.9,0,0,0,999.28,349V500.52a27.91,27.91,0,0,1-27.9,27.9H858.26V349a27.93,27.93,0,0,1,27.9-27.9H1024C1024.56,321.11,1025.08,321.13,1025.61,321.17Z"/><path class="cls-5" d="M971.57,528.36c-.52,0-1.05.06-1.58.06H833.6a27.9,27.9,0,0,1-27.9-27.9H945.22A27.87,27.87,0,0,0,971.57,528.36Z"/><circle class="cls-3" cx="930.64" cy="365.5" r="11.29"/><path class="cls-2" d="M943.16,378.38l-4.77-.78a1,1,0,0,0-1.13,1.14l.78,4.77a1,1,0,0,1-1.66.86l-9.81-9.81a11.21,11.21,0,0,0,9.35-5.94l8.1,8.1A1,1,0,0,1,943.16,378.38Z"/><path class="cls-2" d="M925.71,374.58l-9.79,9.79a1,1,0,0,1-1.65-.86l.77-4.77a1,1,0,0,0-1.13-1.14l-4.77.78a1,1,0,0,1-.86-1.66l7.85-7.85A11.21,11.21,0,0,0,925.71,374.58Z"/><path class="cls-2" d="M937.26,363.3a11.05,11.05,0,0,1-1.34,5.32,11.21,11.21,0,0,1-9.35,5.94,3,3,0,0,1-.61,0,1.06,1.06,0,0,1-.25,0,11.28,11.28,0,1,1,11.55-11.28Z"/><line class="cls-9" x1="872.4" y1="405.64" x2="983.78" y2="405.64"/><line class="cls-9" x1="872.4" y1="414.55" x2="983.78" y2="414.55"/><line class="cls-9" x1="872.4" y1="423.47" x2="983.78" y2="423.47"/><line class="cls-9" x1="872.4" y1="432.39" x2="900.74" y2="432.39"/><line class="cls-9" x1="872.4" y1="449.17" x2="983.78" y2="449.17"/><line class="cls-9" x1="872.4" y1="458.08" x2="983.78" y2="458.08"/><line class="cls-9" x1="872.4" y1="467" x2="983.78" y2="467"/><line class="cls-9" x1="872.4" y1="475.92" x2="934.26" y2="475.92"/><path class="cls-4" d="M1114.49,581c0,32-32.72,57.92-73.08,57.92a89.44,89.44,0,0,1-29.3-4.84l-33.36,18.39a1.63,1.63,0,0,1-2.27-2.1l13-28.63c-13.08-10.47-21.14-24.86-21.14-40.74,0-32,32.72-57.91,73.09-57.91S1114.49,549,1114.49,581Z"/><polygon class="cls-3" points="1110.41 429.59 1108.35 435.64 1106.25 441.73 1104.17 447.78 1053.59 595.11 1034.63 588.6 1085.21 441.27 1087.29 435.2 1089.39 429.13 1091.47 423.08 1110.41 429.59"/><path class="cls-10" d="M1109.5,417.35l-3.07,9h0l-18.79-6.46,3.06-9a9.95,9.95,0,1,1,18.82,6.46Z"/><polygon class="cls-2" points="1106.41 426.31 1104.37 432.31 1102.29 438.35 1100.22 444.35 1050.02 590.55 1031.21 584.1 1081.41 437.89 1083.47 431.87 1085.55 425.85 1087.62 419.85 1106.41 426.31"/><path class="cls-4" d="M1050,590.55l-13.36,16.53-3.16,3.9a1,1,0,0,1-1.81-.62l-.09-5-.4-21.25Z"/><path d="M1036.66,607.08l-3.16,3.9a1,1,0,0,1-1.81-.62l-.09-5Z"/><polygon class="cls-4" points="1106.43 426.31 1104.37 432.31 1085.55 425.85 1087.62 419.85 1106.41 426.31 1106.43 426.31"/><rect x="1090.73" y="422.15" width="6.37" height="19.9" transform="translate(329.96 1326.37) rotate(-71.05)"/><rect class="cls-4" x="1088.67" y="428.17" width="6.36" height="19.9" transform="translate(322.88 1328.49) rotate(-71.05)"/><path d="M1083.67,461.93h0a2.87,2.87,0,0,1-1.78-3.64l3.31-9.63a2.86,2.86,0,0,1,3.64-1.78h0a2.87,2.87,0,0,1,1.78,3.65l-3.3,9.62A2.87,2.87,0,0,1,1083.67,461.93Z"/><path d="M958.21,753.24l21.62,18.89a.25.25,0,0,1-.15.44l-10.5.56a.24.24,0,0,0-.2.36l4.16,8.13a.25.25,0,0,1-.12.34l-2.71,1.24a.24.24,0,0,1-.32-.11l-4.26-8.16a.25.25,0,0,0-.4-.06l-7,7.21a.25.25,0,0,1-.43-.17l-.15-28.49A.24.24,0,0,1,958.21,753.24Z"/><g id="logo"><g id="elearn_logo" data-name="elearn logo"><g id="Elearn." class="cls-1"><g class="cls-1"><path class="cls-3" d="M68.94,584.4V488.47h61.61v14.81H86.39V527H125.7v14.54H86.39v28.1h47.48V584.4Z"/><path class="cls-3" d="M174.43,585.79A46,46,0,0,1,162,584.13a19,19,0,0,1-7.82-4.37,15.35,15.35,0,0,1-4.08-7.06,35.63,35.63,0,0,1-1.18-9.62V479.75L165.71,477V559.9a23.13,23.13,0,0,0,.48,5.12,8.24,8.24,0,0,0,1.73,3.53,7.77,7.77,0,0,0,3.4,2.22,26.59,26.59,0,0,0,5.46,1.17Z"/><path class="cls-3" d="M186.33,548.55a45.52,45.52,0,0,1,2.84-16.75,35.2,35.2,0,0,1,7.55-12,31,31,0,0,1,10.8-7.19A33.28,33.28,0,0,1,220,510.2q15,0,23.33,9.28t8.37,27.68q0,1.4-.06,3.12c-.05,1.15-.12,2.19-.21,3.11H203.64q.69,8.73,6.16,13.5t15.85,4.78a52,52,0,0,0,11.14-1.11,45.87,45.87,0,0,0,8-2.35l2.22,13.7a26.74,26.74,0,0,1-3.81,1.45,53.78,53.78,0,0,1-5.54,1.39q-3.1.62-6.71,1a65.65,65.65,0,0,1-7.34.41A44.46,44.46,0,0,1,207,583.36a30.91,30.91,0,0,1-11.63-7.89,32.21,32.21,0,0,1-6.78-11.9A48.54,48.54,0,0,1,186.33,548.55Zm48.59-7.48a22.17,22.17,0,0,0-1-6.57,16,16,0,0,0-2.84-5.4,13.54,13.54,0,0,0-4.57-3.6,14.54,14.54,0,0,0-6.44-1.32,15,15,0,0,0-6.78,1.46,15.61,15.61,0,0,0-4.92,3.8,17.73,17.73,0,0,0-3.11,5.4,28.77,28.77,0,0,0-1.52,6.23Z"/><path class="cls-3" d="M293.48,510.2a40.79,40.79,0,0,1,14,2.08,22.26,22.26,0,0,1,9.07,5.81,21.83,21.83,0,0,1,4.85,9.07,44.74,44.74,0,0,1,1.45,11.7v43.88c-2.59.55-6.49,1.23-11.7,2a120,120,0,0,1-17.65,1.18,53,53,0,0,1-11.9-1.25,25,25,0,0,1-9.21-4,18.87,18.87,0,0,1-5.95-7.19,25,25,0,0,1-2.15-10.94A21.17,21.17,0,0,1,266.69,552a19.94,19.94,0,0,1,6.58-7,28.54,28.54,0,0,1,9.62-3.88A54.47,54.47,0,0,1,294.31,540a51.72,51.72,0,0,1,5.82.34,52.94,52.94,0,0,1,6.5,1.18v-2.77a21.79,21.79,0,0,0-.69-5.54,11,11,0,0,0-7-7.75,19.73,19.73,0,0,0-7.13-1.11,63.64,63.64,0,0,0-10.66.83,47.28,47.28,0,0,0-7.89,1.94l-2.08-13.57a67.92,67.92,0,0,1,9.28-2.21A72.57,72.57,0,0,1,293.48,510.2Zm1.39,62.44a62.66,62.66,0,0,0,11.76-.83V553.25a34.53,34.53,0,0,0-4-.83,38.4,38.4,0,0,0-5.82-.41,39.61,39.61,0,0,0-5.6.41,17.41,17.41,0,0,0-5.12,1.53,9.29,9.29,0,0,0-3.67,3.11,8.66,8.66,0,0,0-1.39,5.05q0,6,3.74,8.24T294.87,572.64Z"/><path class="cls-3" d="M384.57,527.09a54.42,54.42,0,0,0-5.74-1.45,42.18,42.18,0,0,0-8.52-.76,33.45,33.45,0,0,0-5.88.55,34.69,34.69,0,0,0-4.36,1v58H343.32V515.46a91.58,91.58,0,0,1,12.11-3.39,75.57,75.57,0,0,1,16.13-1.59c1.1,0,2.4.07,3.87.21s3,.32,4.43.55,2.91.51,4.29.83,2.5.62,3.33.9Z"/><path class="cls-3" d="M399.1,514.36a110.48,110.48,0,0,1,12.6-2.63,107.52,107.52,0,0,1,17.17-1.25,39.6,39.6,0,0,1,14.81,2.42,23.1,23.1,0,0,1,9.48,6.79,25.77,25.77,0,0,1,5,10.52,58.62,58.62,0,0,1,1.45,13.49v40.7H442.85V546.33a55.62,55.62,0,0,0-.76-9.89,17.64,17.64,0,0,0-2.49-6.65,10,10,0,0,0-4.71-3.74,20,20,0,0,0-7.27-1.17,55,55,0,0,0-6.64.41c-2.31.28-4,.51-5.12.69V584.4H399.1Z"/><path class="cls-3" d="M498.91,575.27a10.31,10.31,0,0,1-3.25,7.89,11.67,11.67,0,0,1-15.71,0,10.4,10.4,0,0,1-3.18-7.89,10.62,10.62,0,0,1,3.18-8,11.45,11.45,0,0,1,15.71,0A10.52,10.52,0,0,1,498.91,575.27Z"/></g></g></g></g><path class="cls-11" d="M70.85,640.4v-26h4.66v22.1H86.38v3.93Z"/><path class="cls-11" d="M92.76,613a3.07,3.07,0,0,1,1.81.53,2.17,2.17,0,0,1,.74,1.88,2.2,2.2,0,0,1-.74,1.89,3,3,0,0,1-1.81.55,2.92,2.92,0,0,1-1.8-.55,2.18,2.18,0,0,1-.75-1.89,2.14,2.14,0,0,1,.75-1.88A3,3,0,0,1,92.76,613Zm2.3,7.62V640.4h-4.6V620.64Z"/><path class="cls-11" d="M123.57,620.28a6.81,6.81,0,0,1,5.05,1.71q1.69,1.71,1.7,5.54V640.4h-4.59v-12q0-4.41-3.36-4.41a3.79,3.79,0,0,0-3.43,1.56,8.42,8.42,0,0,0-1,4.56V640.4h-4.59v-12q0-4.41-3.39-4.41a3.58,3.58,0,0,0-3.47,1.75,10.65,10.65,0,0,0-1,5v9.66h-4.59V620.64h3.54l.65,2.59h.26a5.19,5.19,0,0,1,2.46-2.24,7.9,7.9,0,0,1,3.3-.71,8.54,8.54,0,0,1,3.74.74,5,5,0,0,1,2.31,2.32h.37a5.41,5.41,0,0,1,2.55-2.34A8.51,8.51,0,0,1,123.57,620.28Z"/><path class="cls-11" d="M138.38,613a3.06,3.06,0,0,1,1.8.53,2.14,2.14,0,0,1,.75,1.88,2.18,2.18,0,0,1-.75,1.89,3.24,3.24,0,0,1-3.61,0,2.17,2.17,0,0,1-.74-1.89,2.14,2.14,0,0,1,.74-1.88A3.07,3.07,0,0,1,138.38,613Zm2.3,7.62V640.4h-4.6V620.64Z"/><path class="cls-11" d="M154.2,637.09a8.35,8.35,0,0,0,1.66-.17,14.05,14.05,0,0,0,1.52-.38V640a9.31,9.31,0,0,1-1.9.56,12.09,12.09,0,0,1-2.44.24,8,8,0,0,1-3.07-.57,4.33,4.33,0,0,1-2.18-2,7.67,7.67,0,0,1-.81-3.86V624.1h-2.66v-2l2.92-1.61,1.46-4.19h2.88v4.34h5.61v3.46h-5.61v10.25a2.45,2.45,0,0,0,2.62,2.74Z"/><path class="cls-11" d="M165.94,640.4h-4.59V612.69h4.59Z"/><path class="cls-11" d="M179.76,620.28a8.38,8.38,0,0,1,6.29,2.37,9,9,0,0,1,2.32,6.6v2.33H175.32a6,6,0,0,0,1.49,4.17,5.19,5.19,0,0,0,3.94,1.48,14.46,14.46,0,0,0,3.43-.38,19.31,19.31,0,0,0,3.13-1.11v3.68a13.61,13.61,0,0,1-3,1,18.56,18.56,0,0,1-3.76.33,11.37,11.37,0,0,1-5.12-1.11,7.93,7.93,0,0,1-3.5-3.38,11.36,11.36,0,0,1-1.26-5.61q0-5.07,2.51-7.73A8.65,8.65,0,0,1,179.76,620.28Zm0,3.39a4,4,0,0,0-3,1.18,5.56,5.56,0,0,0-1.34,3.52h8.5a5.58,5.58,0,0,0-1-3.37A3.65,3.65,0,0,0,179.76,623.67Z"/><path class="cls-11" d="M206.46,634.68a5.24,5.24,0,0,1-2.14,4.54,10.29,10.29,0,0,1-6.1,1.55,19,19,0,0,1-3.56-.29,13.79,13.79,0,0,1-2.86-.91v-3.91a17.92,17.92,0,0,0,3.22,1.17,12.79,12.79,0,0,0,3.34.47,4.94,4.94,0,0,0,2.74-.58,1.82,1.82,0,0,0,.84-1.57,1.74,1.74,0,0,0-.33-1,4.25,4.25,0,0,0-1.3-1c-.64-.36-1.6-.81-2.86-1.35a18.25,18.25,0,0,1-3.15-1.51,5.6,5.6,0,0,1-1.9-1.84,5.22,5.22,0,0,1-.64-2.74,4.51,4.51,0,0,1,2.1-4,10.14,10.14,0,0,1,5.6-1.36,15.85,15.85,0,0,1,3.44.36,17.92,17.92,0,0,1,3.27,1.09l-1.46,3.4q-1.4-.58-2.7-1a9.15,9.15,0,0,0-2.7-.4q-3,0-3,1.71a1.53,1.53,0,0,0,.39,1.06,4.54,4.54,0,0,0,1.35.93c.64.33,1.56.72,2.75,1.19a21.42,21.42,0,0,1,3,1.44,5.48,5.48,0,0,1,2,1.84A5,5,0,0,1,206.46,634.68Z"/><path class="cls-11" d="M224.32,634.68a5.26,5.26,0,0,1-2.13,4.54,10.3,10.3,0,0,1-6.11,1.55,19,19,0,0,1-3.55-.29,13.61,13.61,0,0,1-2.86-.91v-3.91a17.64,17.64,0,0,0,3.22,1.17,12.73,12.73,0,0,0,3.34.47,4.9,4.9,0,0,0,2.73-.58,1.82,1.82,0,0,0,.84-1.57,1.74,1.74,0,0,0-.33-1,4.18,4.18,0,0,0-1.29-1c-.64-.36-1.6-.81-2.86-1.35a18.39,18.39,0,0,1-3.16-1.51,5.56,5.56,0,0,1-1.89-1.84,5.22,5.22,0,0,1-.64-2.74,4.51,4.51,0,0,1,2.1-4,10.1,10.1,0,0,1,5.59-1.36,15.88,15.88,0,0,1,3.45.36,17.58,17.58,0,0,1,3.26,1.09l-1.46,3.4a27.88,27.88,0,0,0-2.7-1,9,9,0,0,0-2.69-.4q-3,0-3,1.71a1.57,1.57,0,0,0,.38,1.06,4.83,4.83,0,0,0,1.35.93c.65.33,1.56.72,2.76,1.19a22,22,0,0,1,3,1.44,5.56,5.56,0,0,1,2,1.84A5.1,5.1,0,0,1,224.32,634.68Z"/><path class="cls-11" d="M242.81,640.4h-4.59V612.69h4.59Z"/><path class="cls-11" d="M256.63,620.28a8.38,8.38,0,0,1,6.29,2.37,9.06,9.06,0,0,1,2.32,6.6v2.33H252.18a6,6,0,0,0,1.5,4.17,5.19,5.19,0,0,0,3.94,1.48,14.38,14.38,0,0,0,3.42-.38,19.4,19.4,0,0,0,3.14-1.11v3.68a13.52,13.52,0,0,1-3,1,18.39,18.39,0,0,1-3.75.33,11.45,11.45,0,0,1-5.13-1.11,8,8,0,0,1-3.5-3.38,11.36,11.36,0,0,1-1.26-5.61q0-5.07,2.52-7.73A8.65,8.65,0,0,1,256.63,620.28Zm0,3.39a4,4,0,0,0-3,1.18,5.56,5.56,0,0,0-1.33,3.52h8.5a5.65,5.65,0,0,0-1-3.37A3.65,3.65,0,0,0,256.63,623.67Z"/><path class="cls-11" d="M277.74,620.28a8.8,8.8,0,0,1,5.82,1.67,6.4,6.4,0,0,1,2,5.18V640.4H282.3l-.91-2.73h-.15a8.76,8.76,0,0,1-2.69,2.35,8.37,8.37,0,0,1-3.87.75,6.55,6.55,0,0,1-4.41-1.5,5.74,5.74,0,0,1-1.75-4.63,5.2,5.2,0,0,1,2.24-4.59c1.5-1,3.76-1.59,6.8-1.72l3.43-.1v-1a3.45,3.45,0,0,0-.91-2.68,3.67,3.67,0,0,0-2.55-.82,9.41,9.41,0,0,0-2.87.44,28.8,28.8,0,0,0-2.71,1L270.49,622a15.29,15.29,0,0,1,3.33-1.24A15.82,15.82,0,0,1,277.74,620.28Zm.84,10.86a7.45,7.45,0,0,0-4.19,1,3,3,0,0,0-1.17,2.5,2.35,2.35,0,0,0,.82,2,3.6,3.6,0,0,0,2.17.6,5.15,5.15,0,0,0,3.39-1.14,4.17,4.17,0,0,0,1.39-3.41v-1.68Z"/><path class="cls-11" d="M301.67,620.28l1,0a4.83,4.83,0,0,1,1,.15l-.4,4.26c-.24,0-.54-.09-.88-.12a7.83,7.83,0,0,0-.91-.06,6.33,6.33,0,0,0-2.73.6,4.79,4.79,0,0,0-2.06,1.86,5.81,5.81,0,0,0-.79,3.16V640.4h-4.59V620.64h3.54l.65,3.43h.22a8.2,8.2,0,0,1,2.41-2.68A5.87,5.87,0,0,1,301.67,620.28Z"/><path class="cls-11" d="M317.89,620.28a7.44,7.44,0,0,1,5.2,1.71q1.88,1.71,1.88,5.54V640.4h-4.6v-12q0-4.44-3.64-4.44c-1.85,0-3.12.58-3.8,1.75a10,10,0,0,0-1,5v9.66h-4.59V620.64h3.53l.66,2.59h.26a5.56,5.56,0,0,1,2.6-2.24A8.75,8.75,0,0,1,317.89,620.28Z"/><path class="cls-11" d="M333,613a3.07,3.07,0,0,1,1.81.53,2.14,2.14,0,0,1,.75,1.88,2.18,2.18,0,0,1-.75,1.89,3.24,3.24,0,0,1-3.61,0,2.18,2.18,0,0,1-.75-1.89,2.14,2.14,0,0,1,.75-1.88A3.06,3.06,0,0,1,333,613Zm2.3,7.62V640.4h-4.59V620.64Z"/><path class="cls-11" d="M351.77,620.28A7.42,7.42,0,0,1,357,622c1.26,1.14,1.88,3,1.88,5.54V640.4h-4.59v-12q0-4.44-3.65-4.44c-1.85,0-3.11.58-3.79,1.75a10,10,0,0,0-1,5v9.66h-4.6V620.64h3.54l.66,2.59h.25a5.54,5.54,0,0,1,2.61-2.24A8.72,8.72,0,0,1,351.77,620.28Z"/><path class="cls-11" d="M371.24,620.28a6.85,6.85,0,0,1,5.87,2.91h.18l.44-2.55h3.83v19.91q0,4.23-2.39,6.42T372,649.16a26.09,26.09,0,0,1-3.9-.28,14.63,14.63,0,0,1-3.39-.93v-3.79a18.23,18.23,0,0,0,7.58,1.53,4.51,4.51,0,0,0,3.45-1.26,5.13,5.13,0,0,0,1.18-3.66v-.51c0-.37,0-.79,0-1.28a9.34,9.34,0,0,1,.11-1.16H377a6.32,6.32,0,0,1-2.49,2.24,7.68,7.68,0,0,1-3.34.71,6.68,6.68,0,0,1-5.65-2.7q-2-2.7-2-7.51c0-3.21.68-5.73,2.06-7.55A6.77,6.77,0,0,1,371.24,620.28Zm1.2,3.75q-4.31,0-4.3,6.6t4.38,6.49a4.42,4.42,0,0,0,3.55-1.33c.77-.89,1.15-2.39,1.15-4.5v-.69q0-3.51-1.15-5A4.23,4.23,0,0,0,372.44,624Z"/><path class="cls-11" d="M404.79,620.28A8.77,8.77,0,0,1,410.6,622a6.4,6.4,0,0,1,2,5.18V640.4h-3.25l-.91-2.73h-.14a8.68,8.68,0,0,1-2.7,2.35,8.37,8.37,0,0,1-3.87.75,6.55,6.55,0,0,1-4.41-1.5,5.74,5.74,0,0,1-1.75-4.63,5.2,5.2,0,0,1,2.24-4.59q2.25-1.53,6.8-1.72l3.43-.1v-1a3.45,3.45,0,0,0-.91-2.68,3.67,3.67,0,0,0-2.55-.82,9.35,9.35,0,0,0-2.86.44,28,28,0,0,0-2.72,1L397.53,622a15.19,15.19,0,0,1,3.34-1.24A15.71,15.71,0,0,1,404.79,620.28Zm.84,10.86a7.49,7.49,0,0,0-4.2,1,3,3,0,0,0-1.16,2.5,2.32,2.32,0,0,0,.82,2,3.58,3.58,0,0,0,2.17.6,5.18,5.18,0,0,0,3.39-1.14,4.2,4.2,0,0,0,1.38-3.41v-1.68Z"/><path class="cls-11" d="M426,637.09a8.42,8.42,0,0,0,1.66-.17,13.29,13.29,0,0,0,1.51-.38V640a9.19,9.19,0,0,1-1.89.56,12.19,12.19,0,0,1-2.45.24,7.94,7.94,0,0,1-3.06-.57,4.36,4.36,0,0,1-2.19-2,7.79,7.79,0,0,1-.8-3.86V624.1h-2.66v-2l2.91-1.61,1.46-4.19h2.88v4.34H429v3.46h-5.62v10.25a2.45,2.45,0,0,0,2.63,2.74Z"/><path class="cls-11" d="M67.45,658.64h5l3.94,11.16a17.7,17.7,0,0,1,.65,2.08,14.36,14.36,0,0,1,.37,2.08h.15a19.34,19.34,0,0,1,.43-2c.2-.73.42-1.45.66-2.15l3.79-11.16h5L79,681a10.62,10.62,0,0,1-3.08,4.54,7.35,7.35,0,0,1-4.8,1.59,10.18,10.18,0,0,1-1.57-.1c-.43-.06-.82-.12-1.16-.2v-3.64c.26,0,.59.09,1,.14a9,9,0,0,0,1.19.08,3.64,3.64,0,0,0,2.71-1,6.71,6.71,0,0,0,1.55-2.49l.59-1.61Z"/><path class="cls-11" d="M108,668.49q0,4.92-2.55,7.6a9.1,9.1,0,0,1-6.93,2.68,9.57,9.57,0,0,1-4.81-1.2,8.41,8.41,0,0,1-3.32-3.51,11.91,11.91,0,0,1-1.2-5.57q0-4.93,2.53-7.57a9.12,9.12,0,0,1,6.91-2.64,9.73,9.73,0,0,1,4.85,1.18,8.34,8.34,0,0,1,3.32,3.46A11.85,11.85,0,0,1,108,668.49Zm-14.11,0A8.93,8.93,0,0,0,95,673.34a4.63,4.63,0,0,0,7.19,0,8.93,8.93,0,0,0,1.11-4.85,8.75,8.75,0,0,0-1.11-4.82A4,4,0,0,0,98.56,662,4,4,0,0,0,95,663.67,8.75,8.75,0,0,0,93.89,668.49Z"/><path class="cls-11" d="M130.28,658.64V678.4h-3.61l-.62-2.55h-.22a5.69,5.69,0,0,1-2.64,2.23,9.09,9.09,0,0,1-3.52.69,7.42,7.42,0,0,1-5.19-1.71c-1.26-1.15-1.88-3-1.88-5.51V658.64h4.59v12q0,4.41,3.65,4.41c1.85,0,3.12-.58,3.81-1.73a9.91,9.91,0,0,0,1-5v-9.66Z"/><path class="cls-11" d="M146.51,658.28l1,0a4.83,4.83,0,0,1,1,.15l-.41,4.26c-.24,0-.53-.09-.87-.12a7.83,7.83,0,0,0-.91-.06,6.38,6.38,0,0,0-2.74.6,4.85,4.85,0,0,0-2.06,1.86,5.9,5.9,0,0,0-.78,3.16V678.4h-4.6V658.64h3.54l.66,3.43h.22a8.17,8.17,0,0,1,2.4-2.68A5.87,5.87,0,0,1,146.51,658.28Z"/><path class="cls-11" d="M171.89,662.1h-4.78v16.3h-4.59V662.1h-3.17v-2.18l3.17-1.32v-1.35c0-2.52.6-4.28,1.8-5.26a7.56,7.56,0,0,1,4.94-1.48,13.17,13.17,0,0,1,2.61.24,12.16,12.16,0,0,1,1.95.52l-1.16,3.43c-.42-.12-.87-.24-1.37-.34a7.53,7.53,0,0,0-1.62-.17,2.27,2.27,0,0,0-1.94.82,3.87,3.87,0,0,0-.62,2.35v1.28h4.78ZM177.47,651a3,3,0,0,1,1.8.53,2.14,2.14,0,0,1,.75,1.88,2.18,2.18,0,0,1-.75,1.89,2.92,2.92,0,0,1-1.8.55,3,3,0,0,1-1.81-.55,2.2,2.2,0,0,1-.74-1.89,2.17,2.17,0,0,1,.74-1.88A3.07,3.07,0,0,1,177.47,651Zm2.3,7.62V678.4h-4.6V658.64Z"/><path class="cls-11" d="M196.21,658.28a7.44,7.44,0,0,1,5.2,1.71q1.88,1.71,1.88,5.54V678.4h-4.6v-12c0-3-1.21-4.44-3.65-4.44-1.84,0-3.11.58-3.79,1.75a10,10,0,0,0-1,5v9.66h-4.59V658.64h3.53l.66,2.59h.26a5.56,5.56,0,0,1,2.6-2.24A8.75,8.75,0,0,1,196.21,658.28Z"/><path class="cls-11" d="M215.68,658.28a6.84,6.84,0,0,1,5.87,2.91h.19l.43-2.55H226v19.91q0,4.23-2.38,6.42c-1.6,1.46-4,2.19-7.13,2.19a26.33,26.33,0,0,1-3.91-.28,14.63,14.63,0,0,1-3.39-.93v-3.79a18.25,18.25,0,0,0,7.59,1.53,4.49,4.49,0,0,0,3.44-1.26,5.13,5.13,0,0,0,1.19-3.66v-.51c0-.37,0-.79,0-1.28s.06-.87.1-1.16h-.14a6.28,6.28,0,0,1-2.5,2.24,7.65,7.65,0,0,1-3.34.71,6.69,6.69,0,0,1-5.65-2.7q-2-2.7-2-7.51a12.31,12.31,0,0,1,2.06-7.55A6.78,6.78,0,0,1,215.68,658.28Zm1.21,3.75q-4.3,0-4.31,6.6t4.38,6.49a4.46,4.46,0,0,0,3.56-1.33q1.14-1.34,1.14-4.5v-.69q0-3.51-1.14-5A4.25,4.25,0,0,0,216.89,662Z"/><path class="cls-11" d="M239.82,658.28a8.38,8.38,0,0,1,6.29,2.37,9,9,0,0,1,2.32,6.6v2.33H235.37a6,6,0,0,0,1.5,4.17,5.19,5.19,0,0,0,3.94,1.48,14.52,14.52,0,0,0,3.43-.38,19.31,19.31,0,0,0,3.13-1.11v3.68a13.61,13.61,0,0,1-3,1,18.56,18.56,0,0,1-3.76.33,11.37,11.37,0,0,1-5.12-1.11,7.93,7.93,0,0,1-3.5-3.38,11.36,11.36,0,0,1-1.26-5.61q0-5.07,2.51-7.73A8.65,8.65,0,0,1,239.82,658.28Zm0,3.39a4,4,0,0,0-3,1.18,5.61,5.61,0,0,0-1.33,3.52H244a5.58,5.58,0,0,0-1-3.37A3.65,3.65,0,0,0,239.82,661.67Z"/><path class="cls-11" d="M263.42,658.28l1,0a4.84,4.84,0,0,1,1,.15l-.4,4.26c-.24,0-.53-.09-.87-.12a8.13,8.13,0,0,0-.92-.06,6.33,6.33,0,0,0-2.73.6,4.79,4.79,0,0,0-2.06,1.86,5.9,5.9,0,0,0-.79,3.16V678.4h-4.59V658.64h3.54l.65,3.43h.22a8.31,8.31,0,0,1,2.41-2.68A5.87,5.87,0,0,1,263.42,658.28Z"/><path class="cls-11" d="M276.73,675.09a8.32,8.32,0,0,0,1.65-.17,13.49,13.49,0,0,0,1.52-.38V678a9.31,9.31,0,0,1-1.9.56,12.09,12.09,0,0,1-2.44.24,7.94,7.94,0,0,1-3.06-.57,4.32,4.32,0,0,1-2.19-2,7.68,7.68,0,0,1-.8-3.86V662.1h-2.67v-2l2.92-1.61,1.46-4.19h2.88v4.34h5.62v3.46H274.1v10.25a2.65,2.65,0,0,0,.73,2.06A2.7,2.7,0,0,0,276.73,675.09Z"/><path class="cls-11" d="M286.17,651a3.09,3.09,0,0,1,1.81.53,2.17,2.17,0,0,1,.74,1.88,2.2,2.2,0,0,1-.74,1.89,3.25,3.25,0,0,1-3.62,0,2.2,2.2,0,0,1-.74-1.89,2.17,2.17,0,0,1,.74-1.88A3.07,3.07,0,0,1,286.17,651Zm2.3,7.62V678.4h-4.6V658.64Z"/><path class="cls-11" d="M304.73,658.28a6.85,6.85,0,0,1,5.58,2.57q2.12,2.56,2.11,7.64c0,3.38-.72,5.93-2.17,7.67a7.66,7.66,0,0,1-9.17,1.81,7.61,7.61,0,0,1-2.15-1.86h-.29c.07.46.14,1,.2,1.51a14,14,0,0,1,.09,1.51v8h-4.59V658.64h3.72l.65,2.63h.22a7.06,7.06,0,0,1,2.19-2.12A6.7,6.7,0,0,1,304.73,658.28ZM303.42,662a3.89,3.89,0,0,0-3.45,1.45,8.11,8.11,0,0,0-1,4.42v.58a9.92,9.92,0,0,0,1,4.87c.64,1.13,1.84,1.69,3.59,1.69a3.45,3.45,0,0,0,3.19-1.77,9.52,9.52,0,0,0,1-4.83,9.06,9.06,0,0,0-1-4.74A3.55,3.55,0,0,0,303.42,662Z"/><path class="cls-11" d="M330.62,672.68a5.26,5.26,0,0,1-2.13,4.54,10.33,10.33,0,0,1-6.11,1.55,19.09,19.09,0,0,1-3.56-.29,13.79,13.79,0,0,1-2.86-.91v-3.91a17.75,17.75,0,0,0,3.23,1.17,12.72,12.72,0,0,0,3.33.47,4.92,4.92,0,0,0,2.74-.58,1.82,1.82,0,0,0,.84-1.57,1.74,1.74,0,0,0-.33-1,4.31,4.31,0,0,0-1.29-1c-.65-.36-1.6-.81-2.87-1.35a18.62,18.62,0,0,1-3.15-1.51,5.69,5.69,0,0,1-1.9-1.84,5.32,5.32,0,0,1-.64-2.74,4.51,4.51,0,0,1,2.1-4,10.14,10.14,0,0,1,5.6-1.36,15.85,15.85,0,0,1,3.44.36,17.68,17.68,0,0,1,3.27,1.09l-1.46,3.4a27.88,27.88,0,0,0-2.7-1,9.05,9.05,0,0,0-2.7-.4c-2,0-3,.57-3,1.71a1.52,1.52,0,0,0,.38,1.06,4.54,4.54,0,0,0,1.35.93c.64.33,1.56.72,2.75,1.19a21.58,21.58,0,0,1,3,1.44,5.65,5.65,0,0,1,2,1.84A5.1,5.1,0,0,1,330.62,672.68Z"/></g></g></svg>